<?xml version="1.0" encoding="UTF-8" standalone="no"?>
<svg width="187px" height="56px" viewBox="0 0 187 56" version="1.1" xmlns="http://www.w3.org/2000/svg" xmlns:xlink="http://www.w3.org/1999/xlink" xmlns:sketch="http://www.bohemiancoding.com/sketch/ns">
    <title>Untitled</title>
    <description>Created with Sketch (http://www.bohemiancoding.com/sketch)</description>
    <defs></defs>
    <g id="Page-1" stroke="none" stroke-width="1" fill="none" fill-rule="evenodd" sketch:type="MSPage">
        <g id="app-store-white" sketch:type="MSLayerGroup" transform="translate(1.000000, 0.000000)">
            <g id="Group" sketch:type="MSShapeGroup">
                <path d="M178.982,55.5 L6.019,55.5 C2.425,55.5 -0.5,52.588 -0.5,49.007 L-0.5,7 C-0.5,3.416 2.425,0.5 6.019,0.5 L178.981,0.5 C182.571,0.5 185.5,3.416 185.5,7 L185.5,49.007 C185.503,52.588 182.573,55.5 178.982,55.5 L178.982,55.5 L178.982,55.5 Z" id="Shape" fill="#FFFFFF"></path>
                <g transform="translate(17.000000, 9.000000)" id="Shape" fill="#4D3F9B">
                    <path d="M24.01,18.711 C23.97,14.279 27.646,12.123 27.814,12.023 C25.732,8.994 22.505,8.58 21.372,8.547 C18.662,8.262 16.033,10.165 14.653,10.165 C13.245,10.165 11.119,8.574 8.828,8.621 C5.88,8.666 3.121,10.37 1.608,13.016 C-1.514,18.41 0.814,26.337 3.806,30.697 C5.302,32.834 7.051,35.217 9.339,35.133 C11.578,35.042 12.414,33.71 15.116,33.71 C17.793,33.71 18.578,35.133 20.912,35.079 C23.315,35.042 24.828,32.934 26.272,30.779 C28.001,28.333 28.696,25.921 28.723,25.797 C28.667,25.778 24.057,24.021 24.01,18.711 L24.01,18.711 Z"></path>
                    <path d="M19.601,5.678 C20.805,4.175 21.629,2.13 21.4,0.056 C19.657,0.133 17.477,1.259 16.222,2.729 C15.112,4.024 14.12,6.147 14.376,8.144 C16.334,8.289 18.344,7.158 19.601,5.678 L19.601,5.678 Z"></path>
                    <g transform="translate(41.000000, 16.000000)">
                        <path d="M15.438,18.826 L12.309,18.826 L10.595,13.451 L4.637,13.451 L3.004,18.826 L-0.042,18.826 L5.862,0.528 L9.508,0.528 L15.438,18.826 L15.438,18.826 Z M10.079,11.196 L8.529,6.418 C8.365,5.93 8.056,4.78 7.605,2.971 L7.55,2.971 C7.368,3.749 7.077,4.899 6.679,6.418 L5.155,11.196 L10.079,11.196 L10.079,11.196 Z"></path>
                        <path d="M30.591,12.066 C30.591,14.31 29.981,16.084 28.759,17.386 C27.665,18.545 26.305,19.124 24.684,19.124 C22.933,19.124 21.674,18.501 20.909,17.253 L20.909,24.176 L17.972,24.176 L17.972,9.968 C17.972,8.559 17.935,7.114 17.863,5.631 L20.446,5.631 L20.61,7.722 L20.665,7.722 C21.645,6.146 23.131,5.358 25.126,5.358 C26.686,5.358 27.988,5.973 29.029,7.203 C30.069,8.437 30.591,10.057 30.591,12.066 L30.591,12.066 Z M27.599,12.173 C27.599,10.889 27.31,9.83 26.728,8.995 C26.093,8.127 25.24,7.693 24.171,7.693 C23.446,7.693 22.788,7.935 22.199,8.412 C21.609,8.893 21.224,9.522 21.043,10.3 C20.952,10.663 20.907,10.959 20.907,11.192 L20.907,13.393 C20.907,14.351 21.202,15.161 21.792,15.824 C22.382,16.484 23.148,16.815 24.09,16.815 C25.196,16.815 26.057,16.387 26.673,15.539 C27.29,14.69 27.599,13.568 27.599,12.173 L27.599,12.173 Z"></path>
                        <path d="M45.798,12.066 C45.798,14.31 45.188,16.084 43.966,17.386 C42.871,18.545 41.512,19.124 39.889,19.124 C38.138,19.124 36.879,18.501 36.114,17.253 L36.114,24.176 L33.177,24.176 L33.177,9.968 C33.177,8.559 33.14,7.114 33.068,5.631 L35.651,5.631 L35.815,7.722 L35.87,7.722 C36.848,6.146 38.335,5.358 40.331,5.358 C41.889,5.358 43.191,5.973 44.236,7.203 C45.274,8.437 45.798,10.057 45.798,12.066 L45.798,12.066 Z M42.804,12.173 C42.804,10.889 42.513,9.83 41.932,8.995 C41.297,8.127 40.447,7.693 39.378,7.693 C38.653,7.693 37.995,7.935 37.404,8.412 C36.814,8.893 36.43,9.522 36.249,10.3 C36.159,10.663 36.111,10.959 36.111,11.192 L36.111,13.393 C36.111,14.351 36.407,15.161 36.994,15.824 C37.584,16.483 38.35,16.815 39.295,16.815 C40.403,16.815 41.264,16.387 41.878,15.539 C42.495,14.69 42.804,13.568 42.804,12.173 L42.804,12.173 Z"></path>
                        <path d="M62.8,13.693 C62.8,15.251 62.254,16.517 61.17,17.495 C59.977,18.562 58.311,19.097 56.176,19.097 C54.203,19.097 52.621,18.718 51.428,17.957 L52.107,15.514 C53.395,16.276 54.81,16.655 56.351,16.655 C57.459,16.655 58.32,16.405 58.934,15.908 C59.55,15.41 59.861,14.745 59.861,13.914 C59.861,13.17 59.603,12.547 59.098,12.04 C58.59,11.534 57.749,11.062 56.568,10.629 C53.358,9.434 51.751,7.686 51.751,5.388 C51.751,3.887 52.319,2.657 53.451,1.696 C54.584,0.736 56.085,0.256 57.954,0.256 C59.622,0.256 61.013,0.546 62.116,1.125 L61.379,3.515 C60.34,2.954 59.168,2.674 57.856,2.674 C56.82,2.674 56.007,2.928 55.426,3.434 C54.937,3.886 54.689,4.438 54.689,5.092 C54.689,5.814 54.971,6.413 55.534,6.884 C56.022,7.317 56.912,7.789 58.199,8.295 C59.778,8.93 60.938,9.67 61.681,10.52 C62.428,11.369 62.8,12.429 62.8,13.693 L62.8,13.693 Z"></path>
                        <path d="M72.536,7.831 L69.298,7.831 L69.298,14.237 C69.298,15.866 69.868,16.679 71.012,16.679 C71.537,16.679 71.972,16.635 72.317,16.543 L72.398,18.769 C71.819,18.985 71.057,19.093 70.114,19.093 C68.954,19.093 68.047,18.74 67.393,18.033 C66.741,17.326 66.413,16.142 66.413,14.476 L66.413,7.825 L64.484,7.825 L64.484,5.625 L66.413,5.625 L66.413,3.209 L69.298,2.34 L69.298,5.625 L72.536,5.625 L72.536,7.831 L72.536,7.831 Z"></path>
                        <path d="M87.116,12.12 C87.116,14.148 86.535,15.813 85.374,17.115 C84.16,18.456 82.545,19.124 80.532,19.124 C78.589,19.124 77.045,18.482 75.893,17.199 C74.741,15.913 74.165,14.294 74.165,12.34 C74.165,10.295 74.76,8.621 75.946,7.318 C77.135,6.015 78.736,5.363 80.749,5.363 C82.689,5.363 84.247,6.006 85.427,7.291 C86.555,8.536 87.116,10.145 87.116,12.12 L87.116,12.12 Z M84.071,12.187 C84.071,10.978 83.809,9.942 83.284,9.074 C82.668,8.026 81.786,7.502 80.644,7.502 C79.467,7.502 78.565,8.026 77.95,9.074 C77.424,9.942 77.162,10.996 77.162,12.242 C77.162,13.452 77.424,14.492 77.95,15.356 C78.585,16.404 79.471,16.928 80.619,16.928 C81.742,16.928 82.622,16.393 83.259,15.33 C83.8,14.442 84.071,13.398 84.071,12.187 L84.071,12.187 Z"></path>
                        <path d="M96.668,8.209 C96.377,8.155 96.066,8.128 95.742,8.128 C94.709,8.128 93.91,8.516 93.347,9.297 C92.859,9.985 92.614,10.853 92.614,11.903 L92.614,18.826 L89.677,18.826 L89.677,9.787 C89.677,8.268 89.648,6.882 89.592,5.633 L92.151,5.633 L92.258,8.158 L92.339,8.158 C92.65,7.29 93.138,6.59 93.808,6.067 C94.462,5.595 95.169,5.36 95.931,5.36 C96.202,5.36 96.448,5.379 96.665,5.414 L96.668,8.209 L96.668,8.209 Z"></path>
                        <path d="M109.805,11.604 C109.805,12.129 109.771,12.572 109.698,12.934 L100.886,12.934 C100.919,14.237 101.346,15.236 102.165,15.923 C102.908,16.536 103.868,16.844 105.047,16.844 C106.352,16.844 107.542,16.638 108.613,16.221 L109.073,18.255 C107.822,18.799 106.345,19.07 104.641,19.07 C102.591,19.07 100.982,18.468 99.811,17.266 C98.643,16.063 98.057,14.446 98.057,12.42 C98.057,10.432 98.601,8.775 99.691,7.454 C100.832,6.043 102.374,5.338 104.313,5.338 C106.218,5.338 107.661,6.043 108.641,7.454 C109.415,8.572 109.805,9.958 109.805,11.604 L109.805,11.604 Z M107.004,10.844 C107.025,9.974 106.832,9.224 106.434,8.59 C105.926,7.773 105.143,7.366 104.095,7.366 C103.135,7.366 102.352,7.763 101.757,8.561 C101.268,9.195 100.977,9.957 100.888,10.841 L107.004,10.844 L107.004,10.844 Z"></path>
                    </g>
                    <g transform="translate(43.000000, 1.000000)">
                        <path d="M1.791,9.058 C0.974,9.058 0.267,9.018 -0.321,8.951 L-0.321,0.104 C0.441,-0.016 1.269,-0.083 2.166,-0.083 C5.535,-0.083 7.086,1.571 7.086,4.267 C7.086,7.377 5.253,9.058 1.791,9.058 L1.791,9.058 Z M2.284,1.051 C1.829,1.051 1.442,1.078 1.121,1.145 L1.121,7.87 C1.295,7.897 1.628,7.91 2.096,7.91 C4.303,7.91 5.56,6.656 5.56,4.307 C5.56,2.213 4.424,1.051 2.284,1.051 L2.284,1.051 Z"></path>
                        <path d="M11.92,9.125 C10.021,9.125 8.791,7.71 8.791,5.789 C8.791,3.787 10.048,2.36 12.027,2.36 C13.898,2.36 15.156,3.707 15.156,5.683 C15.157,7.71 13.86,9.125 11.92,9.125 L11.92,9.125 Z M11.975,3.413 C10.932,3.413 10.264,4.387 10.264,5.748 C10.264,7.083 10.946,8.057 11.961,8.057 C12.976,8.057 13.658,7.016 13.658,5.721 C13.659,4.401 12.991,3.413 11.975,3.413 L11.975,3.413 Z"></path>
                        <path d="M25.983,2.493 L23.951,8.977 L22.627,8.977 L21.785,6.161 C21.571,5.454 21.398,4.76 21.263,4.067 L21.235,4.067 C21.129,4.774 20.928,5.482 20.714,6.161 L19.818,8.977 L18.48,8.977 L16.568,2.493 L18.052,2.493 L18.788,5.576 C18.962,6.31 19.108,7.003 19.229,7.658 L19.257,7.658 C19.363,7.112 19.537,6.43 19.792,5.59 L20.715,2.495 L21.892,2.495 L22.775,5.524 C22.989,6.258 23.162,6.979 23.297,7.659 L23.336,7.659 C23.43,6.992 23.577,6.284 23.777,5.524 L24.566,2.495 L25.983,2.493 L25.983,2.493 Z"></path>
                        <path d="M33.464,8.978 L32.02,8.978 L32.02,5.254 C32.02,4.107 31.579,3.533 30.71,3.533 C29.854,3.533 29.266,4.267 29.266,5.121 L29.266,8.978 L27.822,8.978 L27.822,4.347 C27.822,3.774 27.808,3.159 27.768,2.492 L29.038,2.492 L29.106,3.493 L29.146,3.493 C29.535,2.8 30.323,2.36 31.206,2.36 C32.57,2.36 33.466,3.401 33.466,5.095 L33.464,8.978 L33.464,8.978 Z"></path>
                        <path d="M37.446,8.978 L36.001,8.978 L36.001,-0.482 L37.446,-0.482 L37.446,8.978 L37.446,8.978 Z"></path>
                        <path d="M42.711,9.125 C40.814,9.125 39.582,7.71 39.582,5.789 C39.582,3.787 40.839,2.36 42.817,2.36 C44.689,2.36 45.946,3.707 45.946,5.683 C45.947,7.71 44.649,9.125 42.711,9.125 L42.711,9.125 Z M42.764,3.413 C41.721,3.413 41.053,4.387 41.053,5.748 C41.053,7.083 41.736,8.057 42.749,8.057 C43.766,8.057 44.446,7.016 44.446,5.721 C44.448,4.401 43.781,3.413 42.764,3.413 L42.764,3.413 Z"></path>
                        <path d="M51.639,8.978 L51.534,8.231 L51.495,8.231 C51.054,8.832 50.411,9.125 49.595,9.125 C48.431,9.125 47.604,8.311 47.604,7.216 C47.604,5.616 48.994,4.788 51.401,4.788 L51.401,4.668 C51.401,3.814 50.948,3.386 50.052,3.386 C49.411,3.386 48.849,3.547 48.355,3.867 L48.062,2.92 C48.663,2.546 49.412,2.359 50.293,2.359 C51.99,2.359 52.847,3.253 52.847,5.042 L52.847,7.43 C52.847,8.085 52.876,8.592 52.941,8.978 L51.639,8.978 L51.639,8.978 Z M51.44,5.748 C49.836,5.748 49.032,6.136 49.032,7.056 C49.032,7.737 49.447,8.069 50.023,8.069 C50.757,8.069 51.441,7.509 51.441,6.749 L51.44,5.748 L51.44,5.748 Z"></path>
                        <path d="M59.859,8.978 L59.791,7.937 L59.751,7.937 C59.336,8.723 58.639,9.125 57.665,9.125 C56.098,9.125 54.938,7.75 54.938,5.815 C54.938,3.787 56.141,2.358 57.783,2.358 C58.652,2.358 59.268,2.651 59.615,3.239 L59.644,3.239 L59.644,-0.483 L61.089,-0.483 L61.089,7.229 C61.089,7.856 61.104,8.443 61.143,8.977 C61.144,8.978 59.859,8.978 59.859,8.978 L59.859,8.978 Z M59.645,5.162 C59.645,4.254 59.043,3.48 58.124,3.48 C57.053,3.48 56.399,4.427 56.399,5.761 C56.399,7.069 57.078,7.964 58.095,7.964 C59.003,7.964 59.645,7.176 59.645,6.243 L59.645,5.162 L59.645,5.162 Z"></path>
                        <path d="M70.254,9.125 C68.357,9.125 67.126,7.71 67.126,5.789 C67.126,3.787 68.383,2.36 70.361,2.36 C72.233,2.36 73.49,3.707 73.49,5.683 C73.492,7.71 72.195,9.125 70.254,9.125 L70.254,9.125 Z M70.308,3.413 C69.266,3.413 68.598,4.387 68.598,5.748 C68.598,7.083 69.28,8.057 70.294,8.057 C71.311,8.057 71.991,7.016 71.991,5.721 C71.994,4.401 71.326,3.413 70.308,3.413 L70.308,3.413 Z"></path>
                        <path d="M81.255,8.978 L79.81,8.978 L79.81,5.254 C79.81,4.107 79.369,3.533 78.5,3.533 C77.644,3.533 77.057,4.267 77.057,5.121 L77.057,8.978 L75.612,8.978 L75.612,4.347 C75.612,3.774 75.598,3.159 75.558,2.492 L76.828,2.492 L76.896,3.493 L76.936,3.493 C77.323,2.8 78.113,2.359 78.994,2.359 C80.358,2.359 81.255,3.4 81.255,5.094 L81.255,8.978 L81.255,8.978 Z"></path>
                        <path d="M90.97,3.574 L89.381,3.574 L89.381,6.723 C89.381,7.525 89.659,7.925 90.221,7.925 C90.476,7.925 90.689,7.898 90.862,7.858 L90.902,8.953 C90.622,9.06 90.248,9.114 89.782,9.114 C88.644,9.114 87.963,8.487 87.963,6.845 L87.963,3.575 L87.015,3.575 L87.015,2.494 L87.963,2.494 L87.963,1.306 L89.381,0.878 L89.381,2.492 L90.97,2.492 C90.97,2.492 90.97,3.574 90.97,3.574 L90.97,3.574 Z"></path>
                        <path d="M98.614,8.978 L97.171,8.978 L97.171,5.282 C97.171,4.121 96.731,3.534 95.861,3.534 C95.113,3.534 94.416,4.041 94.416,5.069 L94.416,8.978 L92.973,8.978 L92.973,-0.482 L94.416,-0.482 L94.416,3.413 L94.445,3.413 C94.9,2.706 95.558,2.358 96.399,2.358 C97.774,2.358 98.614,3.425 98.614,5.12 L98.614,8.978 L98.614,8.978 Z"></path>
                        <path d="M106.445,6.082 L102.112,6.082 C102.14,7.31 102.954,8.003 104.159,8.003 C104.8,8.003 105.389,7.896 105.91,7.696 L106.135,8.697 C105.521,8.964 104.797,9.097 103.955,9.097 C101.923,9.097 100.72,7.816 100.72,5.829 C100.72,3.841 101.952,2.346 103.792,2.346 C105.452,2.346 106.494,3.574 106.494,5.429 C106.499,5.682 106.487,5.909 106.445,6.082 L106.445,6.082 Z M105.121,5.055 C105.121,4.054 104.615,3.347 103.692,3.347 C102.863,3.347 102.207,4.067 102.113,5.055 L105.121,5.055 L105.121,5.055 Z"></path>
                    </g>
                </g>
            </g>
        </g>
    </g>
</svg>