<?xml version="1.0" encoding="UTF-8" standalone="no"?>
<svg width="512px" height="512px" viewBox="0 0 512 512" version="1.1" xmlns="http://www.w3.org/2000/svg" xmlns:xlink="http://www.w3.org/1999/xlink" xmlns:sketch="http://www.bohemiancoding.com/sketch/ns">
    <title>Untitled</title>
    <description>Created with Sketch (http://www.bohemiancoding.com/sketch)</description>
    <defs></defs>
    <g id="Page-1" stroke="none" stroke-width="1" fill="none" fill-rule="evenodd" sketch:type="MSPage">
        <g id="icon" sketch:type="MSLayerGroup">
            <path d="M437.548047,9.71283203 C409.989121,1 384.391504,1 333.192285,1 L178.807715,1 C127.608496,1 102.009883,1 74.4529492,9.71283203 C44.3649414,20.6648828 20.6648828,44.3649414 9.71283203,74.4529492 C1,102.009883 1,127.608496 1,178.807715 L1,333.192285 C1,384.391504 1,409.989121 9.71382812,437.548047 C20.6648828,467.635059 44.3649414,491.336113 74.4529492,502.286172 C102.009883,511 127.608496,511 178.807715,511 L333.192285,511 C384.391504,511 409.989121,511 437.548047,502.286172 C467.635059,491.335117 491.335117,467.635059 502.287168,437.548047 C511,409.989121 511,384.391504 511,333.192285 L511,178.807715 C511,127.608496 511,102.009883 502.287168,74.4519531 C491.335117,44.3649414 467.635059,20.6638867 437.548047,9.71283203 L437.548047,9.71283203 Z" id="Shape" stroke="#FFFFFF" stroke-width="2" sketch:type="MSShapeGroup"></path>
            <path d="M388.988975,289.033592 C370.648983,362.595242 296.143299,407.363876 222.573067,389.019593 C149.032872,370.6796 104.264238,296.169625 122.612812,222.612266 C140.944223,149.042034 215.449906,104.269108 288.998684,122.609101 C362.564625,140.949094 407.328968,215.46765 388.988975,289.033592 L388.988975,289.033592 Z M321.139268,238.777674 C323.872673,220.506338 309.961055,210.684101 290.938784,204.131652 L297.109329,179.380814 L282.043415,175.626137 L276.035931,199.724732 C272.075282,198.737788 268.007357,197.806628 263.965178,196.88405 L270.015573,172.626685 L254.958242,168.872007 L248.783405,193.614262 C245.505035,192.867618 242.28674,192.129555 239.162848,191.352873 L239.180012,191.275634 L218.402697,186.087742 L214.394847,202.179219 C214.394847,202.179219 225.573059,204.740982 225.337051,204.899751 C231.438939,206.423078 232.541741,210.460966 232.357226,213.662097 L225.328469,241.858656 C225.748993,241.965932 226.293957,242.12041 226.894706,242.36071 C226.392652,242.236269 225.856269,242.098955 225.302722,241.965932 L215.450447,281.465144 C214.703803,283.318882 212.811445,286.099489 208.546131,285.043888 C208.696318,285.262733 197.595345,282.310483 197.595345,282.310483 L190.116026,299.556255 L209.721882,304.443773 C213.369283,305.357769 216.943736,306.314675 220.462406,307.215798 L214.227495,332.249845 L229.276244,336.004523 L235.45108,311.236522 C239.561916,312.352198 243.552603,313.382052 247.457468,314.351832 L241.304087,339.003974 L256.37,342.758652 L262.604911,317.771807 C288.295491,322.633579 307.613845,320.672564 315.745405,297.436471 C322.297854,278.727447 315.419284,267.93543 301.902443,260.898091 C311.746136,258.62812 319.161089,252.15291 321.139268,238.777674 L321.139268,238.777674 Z M286.71638,287.047814 C282.06058,305.756838 250.559905,295.642808 240.34718,293.106791 L248.620345,259.941184 C258.833069,262.490074 291.582443,267.536362 286.71638,287.047814 Z M291.376472,238.507337 C287.128322,255.525683 260.909942,246.879196 252.405061,244.759412 L259.905834,214.679078 C268.410716,216.798862 295.800555,220.75522 291.376472,238.507337 L291.376472,238.507337 Z" id="coin" fill="#FFFFFF" sketch:type="MSShapeGroup"></path>
        </g>
    </g>
</svg>